<mxfile host="app.diagrams.net" agent="Mozilla/5.0 (Windows NT 10.0; Win64; x64) AppleWebKit/537.36 (KHTML, like Gecko) Chrome/141.0.0.0 Safari/537.36" version="28.2.5">
  <diagram name="Архитектурная схема FINAM Hack" id="arch-diagram">
    <mxGraphModel dx="2891" dy="948" grid="1" gridSize="10" guides="1" tooltips="1" connect="1" arrows="1" fold="1" page="1" pageScale="1" pageWidth="1169" pageHeight="827" math="0" shadow="0">
      <root>
        <mxCell id="0" />
        <mxCell id="1" parent="0" />
        <mxCell id="title" value="Архитектурная схема FINAM Hack" style="text;html=1;strokeColor=none;fillColor=none;align=center;verticalAlign=middle;whiteSpace=wrap;rounded=0;fontSize=24;fontStyle=1;fontColor=#FFFFFF;" parent="1" vertex="1">
          <mxGeometry x="400" y="20" width="400" height="40" as="geometry" />
        </mxCell>
        <mxCell id="external-sources" value="Внешние источники&#xa;MOEX RSS&#xa;Telegram&#xa;RBC" style="rounded=1;whiteSpace=wrap;html=1;fillColor=#FFE6CC;strokeColor=#D79B00;fontSize=12;fontStyle=1;" parent="1" vertex="1">
          <mxGeometry x="-310" y="380" width="150" height="80" as="geometry" />
        </mxCell>
        <mxCell id="celery-beat" value="Celery Beat&lt;br&gt;Периодические задачи" style="rounded=1;whiteSpace=wrap;html=1;fillColor=#E1D5E7;strokeColor=#9673A6;fontSize=12;fontStyle=1;" parent="1" vertex="1">
          <mxGeometry x="-110" y="226" width="150" height="80" as="geometry" />
        </mxCell>
        <mxCell id="parsers" value="Парсеры&#xa;MOEX RSS&#xa;Telegram&#xa;RBC Parser" style="rounded=1;whiteSpace=wrap;html=1;fillColor=#D5E8D4;strokeColor=#82B366;fontSize=12;fontStyle=1;" parent="1" vertex="1">
          <mxGeometry x="-110" y="380" width="150" height="80" as="geometry" />
        </mxCell>
        <mxCell id="redis" value="Redis Cache&#xa;Брокер сообщений&#xa;Кэш данных" style="shape=cylinder3;whiteSpace=wrap;html=1;boundedLbl=1;backgroundOutline=1;size=15;fillColor=#FFF2CC;strokeColor=#D6B656;fontSize=12;fontStyle=1;" parent="1" vertex="1">
          <mxGeometry x="90" y="380" width="120" height="80" as="geometry" />
        </mxCell>
        <mxCell id="HcQdfvSC09fCUdWHCOZP-9" value="" style="edgeStyle=orthogonalEdgeStyle;rounded=0;orthogonalLoop=1;jettySize=auto;html=1;" edge="1" parent="1" source="celery-worker" target="HcQdfvSC09fCUdWHCOZP-1">
          <mxGeometry relative="1" as="geometry" />
        </mxCell>
        <mxCell id="HcQdfvSC09fCUdWHCOZP-10" value="Сохранение" style="edgeLabel;html=1;align=center;verticalAlign=middle;resizable=0;points=[];" vertex="1" connectable="0" parent="HcQdfvSC09fCUdWHCOZP-9">
          <mxGeometry x="-0.0733" y="-1" relative="1" as="geometry">
            <mxPoint as="offset" />
          </mxGeometry>
        </mxCell>
        <mxCell id="celery-worker" value="Celery Worker&lt;br&gt;1. Обработка задач&lt;br&gt;парсинга&lt;br&gt;1. Обработка данных торгов" style="rounded=1;whiteSpace=wrap;html=1;fillColor=#D5E8D4;strokeColor=#82B366;fontSize=12;fontStyle=1;" parent="1" vertex="1">
          <mxGeometry x="260" y="380" width="150" height="80" as="geometry" />
        </mxCell>
        <mxCell id="HcQdfvSC09fCUdWHCOZP-18" style="edgeStyle=orthogonalEdgeStyle;rounded=0;orthogonalLoop=1;jettySize=auto;html=1;entryX=0.25;entryY=1;entryDx=0;entryDy=0;" edge="1" parent="1" source="postgres" target="fastapi">
          <mxGeometry relative="1" as="geometry">
            <Array as="points">
              <mxPoint x="678" y="560" />
              <mxPoint x="678" y="460" />
            </Array>
          </mxGeometry>
        </mxCell>
        <mxCell id="postgres" value="PostgreSQL&#xa;Основная БД&#xa;События и новости" style="shape=cylinder3;whiteSpace=wrap;html=1;boundedLbl=1;backgroundOutline=1;size=15;fillColor=#D5E8D4;strokeColor=#82B366;fontSize=12;fontStyle=1;" parent="1" vertex="1">
          <mxGeometry x="455" y="520" width="120" height="80" as="geometry" />
        </mxCell>
        <mxCell id="HcQdfvSC09fCUdWHCOZP-17" style="edgeStyle=orthogonalEdgeStyle;rounded=0;orthogonalLoop=1;jettySize=auto;html=1;" edge="1" parent="1" source="chroma" target="fastapi">
          <mxGeometry relative="1" as="geometry" />
        </mxCell>
        <mxCell id="chroma" value="ChromaDB&#xa;Векторная БД&#xa;Эмбеддинги" style="shape=cylinder3;whiteSpace=wrap;html=1;boundedLbl=1;backgroundOutline=1;size=15;fillColor=#E1D5E7;strokeColor=#9673A6;fontSize=12;fontStyle=1;" parent="1" vertex="1">
          <mxGeometry x="455" y="230" width="120" height="80" as="geometry" />
        </mxCell>
        <mxCell id="fastapi" value="FastAPI Analytics&#xa;REST API&#xa;Анализ новостей" style="rounded=1;whiteSpace=wrap;html=1;fillColor=#D4EDDA;strokeColor=#82B366;fontSize=12;fontStyle=1;" parent="1" vertex="1">
          <mxGeometry x="640" y="380" width="150" height="80" as="geometry" />
        </mxCell>
        <mxCell id="api-endpoints" value="API Endpoints&lt;br&gt;/api/v1/generation" style="rounded=1;whiteSpace=wrap;html=1;fillColor=#F8D7DA;strokeColor=#D6B656;fontSize=12;fontStyle=1;" parent="1" vertex="1">
          <mxGeometry x="840" y="380" width="150" height="80" as="geometry" />
        </mxCell>
        <mxCell id="clients" value="Клиенты&#xa;Внешние системы&#xa;Веб-интерфейс" style="rounded=1;whiteSpace=wrap;html=1;fillColor=#E2E2E2;strokeColor=#666666;fontSize=12;fontStyle=1;" parent="1" vertex="1">
          <mxGeometry x="1050" y="374" width="150" height="80" as="geometry" />
        </mxCell>
        <mxCell id="arrow1" style="edgeStyle=orthogonalEdgeStyle;rounded=0;orthogonalLoop=1;jettySize=auto;html=1;strokeWidth=2;strokeColor=#D79B00;exitX=1;exitY=0.5;exitDx=0;exitDy=0;" parent="1" source="external-sources" target="parsers" edge="1">
          <mxGeometry relative="1" as="geometry">
            <mxPoint x="-80" y="426" as="sourcePoint" />
          </mxGeometry>
        </mxCell>
        <mxCell id="label1" value="scraping" style="edgeLabel;html=1;align=center;verticalAlign=middle;resizable=0;points=[];" parent="arrow1" vertex="1" connectable="0">
          <mxGeometry x="-0.1" y="-1" relative="1" as="geometry">
            <mxPoint x="3" y="-1" as="offset" />
          </mxGeometry>
        </mxCell>
        <mxCell id="arrow2" style="edgeStyle=orthogonalEdgeStyle;rounded=0;orthogonalLoop=1;jettySize=auto;html=1;strokeWidth=2;strokeColor=#9673A6;" parent="1" source="celery-beat" target="parsers" edge="1">
          <mxGeometry relative="1" as="geometry" />
        </mxCell>
        <mxCell id="label2" value="запуск задач" style="edgeLabel;html=1;align=center;verticalAlign=middle;resizable=0;points=[];" parent="arrow2" vertex="1" connectable="0">
          <mxGeometry x="-0.1" y="-1" relative="1" as="geometry">
            <mxPoint as="offset" />
          </mxGeometry>
        </mxCell>
        <mxCell id="arrow3" style="edgeStyle=orthogonalEdgeStyle;rounded=0;orthogonalLoop=1;jettySize=auto;html=1;strokeWidth=2;strokeColor=#82B366;" parent="1" source="parsers" target="redis" edge="1">
          <mxGeometry relative="1" as="geometry" />
        </mxCell>
        <mxCell id="label3" value="сохранение" style="edgeLabel;html=1;align=center;verticalAlign=middle;resizable=0;points=[];" parent="arrow3" vertex="1" connectable="0">
          <mxGeometry x="-0.1" y="-1" relative="1" as="geometry">
            <mxPoint y="-1" as="offset" />
          </mxGeometry>
        </mxCell>
        <mxCell id="arrow4" style="edgeStyle=orthogonalEdgeStyle;rounded=0;orthogonalLoop=1;jettySize=auto;html=1;strokeWidth=2;strokeColor=#D6B656;" parent="1" source="redis" edge="1">
          <mxGeometry relative="1" as="geometry">
            <mxPoint x="240" y="426" as="targetPoint" />
          </mxGeometry>
        </mxCell>
        <mxCell id="label4" value="очередь задач" style="edgeLabel;html=1;align=center;verticalAlign=middle;resizable=0;points=[];" parent="arrow4" vertex="1" connectable="0">
          <mxGeometry x="-0.1" y="-1" relative="1" as="geometry">
            <mxPoint x="1" y="-2" as="offset" />
          </mxGeometry>
        </mxCell>
        <mxCell id="arrow8" style="edgeStyle=orthogonalEdgeStyle;rounded=0;orthogonalLoop=1;jettySize=auto;html=1;strokeWidth=2;strokeColor=#82B366;" parent="1" source="fastapi" target="api-endpoints" edge="1">
          <mxGeometry relative="1" as="geometry" />
        </mxCell>
        <mxCell id="label8" value="API" style="edgeLabel;html=1;align=center;verticalAlign=middle;resizable=0;points=[];" parent="arrow8" vertex="1" connectable="0">
          <mxGeometry x="-0.1" y="-1" relative="1" as="geometry">
            <mxPoint as="offset" />
          </mxGeometry>
        </mxCell>
        <mxCell id="arrow9" style="edgeStyle=orthogonalEdgeStyle;rounded=0;orthogonalLoop=1;jettySize=auto;html=1;strokeWidth=2;strokeColor=#D6B656;" parent="1" source="api-endpoints" target="clients" edge="1">
          <mxGeometry relative="1" as="geometry" />
        </mxCell>
        <mxCell id="label9" value="HTTP запросы" style="edgeLabel;html=1;align=center;verticalAlign=middle;resizable=0;points=[];" parent="arrow9" vertex="1" connectable="0">
          <mxGeometry x="-0.1" y="-1" relative="1" as="geometry">
            <mxPoint as="offset" />
          </mxGeometry>
        </mxCell>
        <mxCell id="ports-title" value="Порты сервисов:" style="text;html=1;strokeColor=none;fillColor=none;align=left;verticalAlign=middle;whiteSpace=wrap;rounded=0;fontSize=14;fontStyle=1;fontColor=#FFFFFF;" parent="1" vertex="1">
          <mxGeometry x="50" y="650" width="150" height="30" as="geometry" />
        </mxCell>
        <mxCell id="ports-list" value="• FastAPI: 8000&#xa;• PostgreSQL: 5432&#xa;• Redis: 6379&#xa;• ChromaDB: 8001" style="text;html=1;strokeColor=none;fillColor=none;align=left;verticalAlign=top;whiteSpace=wrap;rounded=0;fontSize=11;fontColor=#FFFFFF;" parent="1" vertex="1">
          <mxGeometry x="50" y="680" width="200" height="100" as="geometry" />
        </mxCell>
        <mxCell id="HcQdfvSC09fCUdWHCOZP-2" value="" style="edgeStyle=orthogonalEdgeStyle;rounded=0;orthogonalLoop=1;jettySize=auto;html=1;" edge="1" parent="1" source="HcQdfvSC09fCUdWHCOZP-1" target="fastapi">
          <mxGeometry relative="1" as="geometry" />
        </mxCell>
        <mxCell id="HcQdfvSC09fCUdWHCOZP-11" value="" style="edgeStyle=orthogonalEdgeStyle;rounded=0;orthogonalLoop=1;jettySize=auto;html=1;" edge="1" parent="1" source="HcQdfvSC09fCUdWHCOZP-1" target="chroma">
          <mxGeometry relative="1" as="geometry" />
        </mxCell>
        <mxCell id="HcQdfvSC09fCUdWHCOZP-15" value="" style="edgeStyle=orthogonalEdgeStyle;rounded=0;orthogonalLoop=1;jettySize=auto;html=1;" edge="1" parent="1" source="HcQdfvSC09fCUdWHCOZP-1" target="postgres">
          <mxGeometry relative="1" as="geometry" />
        </mxCell>
        <mxCell id="HcQdfvSC09fCUdWHCOZP-16" value="сохранение" style="edgeLabel;html=1;align=center;verticalAlign=middle;resizable=0;points=[];" vertex="1" connectable="0" parent="HcQdfvSC09fCUdWHCOZP-15">
          <mxGeometry x="-0.2944" y="2" relative="1" as="geometry">
            <mxPoint as="offset" />
          </mxGeometry>
        </mxCell>
        <mxCell id="HcQdfvSC09fCUdWHCOZP-1" value="Предобработка статей" style="rounded=1;whiteSpace=wrap;html=1;fillColor=#D4EDDA;strokeColor=#82B366;fontSize=12;fontStyle=1;" vertex="1" parent="1">
          <mxGeometry x="440" y="380" width="150" height="80" as="geometry" />
        </mxCell>
        <mxCell id="HcQdfvSC09fCUdWHCOZP-12" value="векторизация" style="text;html=1;align=center;verticalAlign=middle;resizable=0;points=[];autosize=1;strokeColor=none;fillColor=none;" vertex="1" parent="1">
          <mxGeometry x="460" y="338" width="100" height="30" as="geometry" />
        </mxCell>
        <mxCell id="HcQdfvSC09fCUdWHCOZP-23" style="edgeStyle=orthogonalEdgeStyle;rounded=0;orthogonalLoop=1;jettySize=auto;html=1;entryX=0.75;entryY=1;entryDx=0;entryDy=0;" edge="1" parent="1" source="HcQdfvSC09fCUdWHCOZP-21" target="fastapi">
          <mxGeometry relative="1" as="geometry" />
        </mxCell>
        <mxCell id="HcQdfvSC09fCUdWHCOZP-24" value="насыщение данными" style="edgeLabel;html=1;align=center;verticalAlign=middle;resizable=0;points=[];" vertex="1" connectable="0" parent="HcQdfvSC09fCUdWHCOZP-23">
          <mxGeometry x="-0.2094" y="1" relative="1" as="geometry">
            <mxPoint as="offset" />
          </mxGeometry>
        </mxCell>
        <mxCell id="HcQdfvSC09fCUdWHCOZP-21" value="clickhouse" style="shape=cylinder3;whiteSpace=wrap;html=1;boundedLbl=1;backgroundOutline=1;size=15;fillColor=#FFF2CC;strokeColor=#D6B656;fontSize=12;fontStyle=1;" vertex="1" parent="1">
          <mxGeometry x="252.5" y="580" width="165" height="80" as="geometry" />
        </mxCell>
        <mxCell id="HcQdfvSC09fCUdWHCOZP-22" style="edgeStyle=orthogonalEdgeStyle;rounded=0;orthogonalLoop=1;jettySize=auto;html=1;entryX=0.5;entryY=0;entryDx=0;entryDy=0;entryPerimeter=0;" edge="1" parent="1" source="celery-worker" target="HcQdfvSC09fCUdWHCOZP-21">
          <mxGeometry relative="1" as="geometry" />
        </mxCell>
      </root>
    </mxGraphModel>
  </diagram>
</mxfile>
